<svg id="Layer_1" data-name="Layer 1" xmlns="http://www.w3.org/2000/svg" viewBox="0 0 78.93 78.93"><defs><style>.cls-1{fill:#f79c31;}</style></defs><title>orangeinstagram</title><g id="Instagram"><path id="Instagram-2" data-name="Instagram" class="cls-1" d="M496.05,262.36H468.11a4.35,4.35,0,0,0-4.36,4.35v28a4.35,4.35,0,0,0,4.36,4.35h27.95a4.35,4.35,0,0,0,4.36-4.35v-28A4.35,4.35,0,0,0,496.05,262.36Zm-6,5.73a1.15,1.15,0,0,1,1.15-1.15h3.44a1.15,1.15,0,0,1,1.15,1.15v3.44a1.15,1.15,0,0,1-1.15,1.15h-3.44a1.15,1.15,0,0,1-1.15-1.15v-3.44Zm-8,5.61a7,7,0,1,1-7,7A7,7,0,0,1,482.12,273.7ZM497,294.44a1.15,1.15,0,0,1-1.15,1.15h-27.5a1.15,1.15,0,0,1-1.15-1.15V277.26h4.58a7,7,0,0,0-.8,3.48,11.15,11.15,0,0,0,22.31,0,5.87,5.87,0,0,0-.88-3.48H497v17.19Z" transform="translate(-441.66 -241.33)"/><path class="cls-1" d="M481.12,320.26a39.47,39.47,0,1,1,39.47-39.47A39.51,39.51,0,0,1,481.12,320.26Zm0-75.93a36.47,36.47,0,1,0,36.47,36.47A36.51,36.51,0,0,0,481.12,244.33Z" transform="translate(-441.66 -241.33)"/></g></svg>