<svg id="Layer_1" data-name="Layer 1" xmlns="http://www.w3.org/2000/svg" viewBox="0 0 78.93 78.93"><defs><style>.cls-1{fill:#f79d32;}</style></defs><title>orangefacebook</title><g id="Facebook"><path class="cls-1" d="M126.12,112.26a39.47,39.47,0,1,1,39.47-39.47A39.51,39.51,0,0,1,126.12,112.26Zm0-75.93a36.47,36.47,0,1,0,36.47,36.47A36.51,36.51,0,0,0,126.12,36.33Z" transform="translate(-86.66 -33.33)"/><path id="Facebook-2" data-name="Facebook" class="cls-1" d="M144.19,88.42a2,2,0,0,1-2,2h-9.35V76.23h4.77l0.71-5.54h-5.49V67.15c0-1.6.45-2.7,2.75-2.7h2.93v-5a39.21,39.21,0,0,0-4.28-.22c-4.23,0-7.13,2.58-7.13,7.32v4.09H122.3v5.54h4.78V90.44H109.5a2,2,0,0,1-2-2V55.76a2,2,0,0,1,2-2h32.66a2,2,0,0,1,2,2V88.42Z" transform="translate(-86.66 -33.33)"/></g></svg>