<svg id="Layer_1" data-name="Layer 1" xmlns="http://www.w3.org/2000/svg" viewBox="0 0 78.93 78.93"><defs><style>.cls-1{fill:#f79c31;}</style></defs><title>orangelinkedin</title><g id="LinKeDin"><g id="LinkedIn-2" data-name="LinkedIn"><rect class="cls-1" x="22.62" y="33.73" width="7.19" height="22.78"/><path class="cls-1" d="M491.11,274.83c-4.12,0-6.7,2.23-7.18,3.79v-3.58h-8.08c0.1,1.9,0,22.78,0,22.78h8.08V285.51a5.19,5.19,0,0,1,.18-1.86,4.11,4.11,0,0,1,3.89-2.79c2.8,0,4.08,2.11,4.08,5.19v11.79h8.15V285.17C500.23,278.11,496.22,274.83,491.11,274.83Z" transform="translate(-441.66 -241.33)"/><path class="cls-1" d="M467.74,264.3c-2.65,0-4.39,1.71-4.39,4a4,4,0,0,0,4.29,3.95h0.05c2.7,0,4.39-1.75,4.39-4A4,4,0,0,0,467.74,264.3Z" transform="translate(-441.66 -241.33)"/></g><path class="cls-1" d="M481.12,320.26a39.47,39.47,0,1,1,39.47-39.47A39.51,39.51,0,0,1,481.12,320.26Zm0-75.93a36.47,36.47,0,1,0,36.47,36.47A36.51,36.51,0,0,0,481.12,244.33Z" transform="translate(-441.66 -241.33)"/></g></svg>